<?xml version="1.0" standalone="no"?>
<!DOCTYPE svg PUBLIC "-//W3C//DTD SVG 20010904//EN"
 "http://www.w3.org/TR/2001/REC-SVG-20010904/DTD/svg10.dtd">
<svg version="1.0" xmlns="http://www.w3.org/2000/svg"
 width="1920.000000pt" height="1152.000000pt" viewBox="0 0 1920.000000 1152.000000"
 preserveAspectRatio="xMidYMid meet">

<g transform="translate(0.000000,1152.000000) scale(0.100000,-0.100000)"
fill="#ffff" stroke="none">
<path d="M9463 6796 c-61 -20 -108 -52 -148 -100 -25 -31 -152 -310 -440 -970
-223 -509 -405 -931 -405 -936 0 -11 74 -13 142 -4 44 6 46 8 51 46 7 52 31
87 74 104 45 19 85 11 129 -28 l34 -30 52 32 c65 40 188 138 188 150 0 5 -4
12 -10 15 -15 9 -12 68 5 92 18 26 75 39 101 25 16 -9 26 0 71 61 28 40 80
127 115 193 l63 122 -22 18 c-11 11 -24 31 -27 46 l-6 27 87 -2 c49 -1 107 2
131 6 40 8 42 8 42 -16 0 -13 -10 -37 -21 -52 -21 -26 -21 -28 -5 -61 14 -30
19 -33 35 -24 57 30 131 -9 131 -70 0 -41 -14 -66 -46 -83 l-25 -13 56 -79
c67 -93 135 -171 193 -221 l42 -36 32 27 c28 24 39 27 82 22 40 -4 55 -11 79
-37 27 -31 29 -38 24 -91 l-5 -57 47 -20 c60 -26 145 -49 201 -56 25 -3 66 -8
93 -11 28 -4 47 -2 47 3 0 12 -760 1752 -795 1822 -32 64 -103 133 -170 165
-66 33 -160 41 -222 21z m132 -311 c76 -100 136 -273 150 -430 7 -74 -15 -267
-33 -302 -18 -33 -149 -52 -245 -36 -51 8 -65 32 -84 145 -19 118 -12 285 16
383 39 130 120 275 156 275 7 0 25 -16 40 -35z m324 -610 c21 -68 29 -199 13
-209 -5 -3 -28 15 -52 41 -25 25 -57 50 -73 56 -26 8 -28 13 -23 41 3 17 9 69
12 116 8 122 8 122 59 69 32 -34 49 -64 64 -114z m-605 83 c4 -29 12 -84 18
-122 11 -65 11 -70 -8 -80 -10 -6 -43 -35 -72 -65 -29 -29 -55 -51 -58 -48 -3
3 -8 32 -11 64 -8 88 19 185 68 250 22 29 44 53 48 53 5 0 12 -24 15 -52z
m697 -478 c12 -7 19 -21 19 -40 0 -51 -58 -68 -86 -25 -15 23 -15 27 0 50 18
27 36 31 67 15z m-816 -110 c24 -26 13 -68 -20 -76 -35 -9 -53 1 -61 31 -7 29
18 65 46 65 9 0 25 -9 35 -20z m992 -46 c12 -19 11 -24 -6 -45 -16 -21 -22
-22 -45 -11 -31 14 -36 55 -8 71 24 15 42 10 59 -15z m-1289 -186 c30 -30 -4
-77 -41 -57 -29 17 -15 69 18 69 6 0 16 -5 23 -12z"/>
<path d="M9523 6160 c-47 -19 -58 -92 -20 -128 39 -37 98 -28 122 19 21 40 19
57 -14 90 -30 30 -50 34 -88 19z"/>
<path d="M6125 6643 c-109 -6 -234 -26 -310 -50 -322 -101 -500 -351 -457
-645 16 -113 56 -190 135 -265 109 -101 242 -156 527 -218 204 -43 284 -71
314 -106 33 -39 33 -64 -2 -99 -92 -91 -451 -56 -725 72 -48 23 -88 39 -90 37
-2 -2 -47 -102 -99 -222 l-96 -218 76 -38 c275 -138 728 -186 1041 -111 309
75 503 279 518 545 18 312 -155 480 -592 574 -345 75 -386 89 -402 138 -32 95
81 152 277 139 116 -7 233 -36 359 -87 52 -22 98 -36 102 -31 8 7 179 417 179
428 0 11 -147 73 -234 98 -140 40 -379 68 -521 59z"/>
<path d="M11415 6640 c-437 -37 -773 -304 -876 -695 -32 -122 -37 -322 -11
-445 111 -537 620 -842 1228 -734 202 35 377 125 511 262 35 35 63 70 61 77
-2 7 -86 87 -188 178 l-185 165 -69 -65 c-95 -90 -187 -133 -299 -140 -221
-14 -376 88 -439 290 -24 77 -26 226 -3 312 45 173 186 288 370 302 139 11
266 -38 374 -143 l64 -63 37 32 c172 150 340 304 340 313 0 17 -120 133 -187
180 -123 88 -317 158 -472 169 -42 3 -96 7 -121 9 -25 2 -85 0 -135 -4z"/>
<path d="M6998 5696 l2 -906 305 0 305 0 0 220 0 220 149 0 c337 0 514 43 688
166 111 79 199 211 234 354 23 91 18 280 -9 370 -67 218 -239 373 -493 447
l-94 27 -545 3 -545 4 3 -905z m933 424 c95 -26 149 -100 149 -202 0 -69 -17
-113 -56 -150 -53 -50 -96 -61 -261 -66 l-153 -5 0 217 0 216 143 0 c78 0 158
-5 178 -10z"/>
<path d="M12370 5695 l0 -905 755 0 755 0 -2 228 -3 227 -452 3 -453 2 0 120
0 120 385 0 385 0 -2 218 -3 217 -382 3 -383 2 0 105 0 105 435 0 435 0 0 230
0 230 -735 0 -735 0 0 -905z"/>
</g>
</svg>
